<?xml version="1.0" encoding="UTF-8" standalone="no" ?>
<!DOCTYPE svg PUBLIC "-//W3C//DTD SVG 1.1//EN" "http://www.w3.org/Graphics/SVG/1.1/DTD/svg11.dtd">
<svg xmlns="http://www.w3.org/2000/svg" xmlns:xlink="http://www.w3.org/1999/xlink" version="1.1" width="1080" height="1080" viewBox="0 0 1080 1080" xml:space="preserve">
<desc>Created with Fabric.js 5.2.4</desc>
<defs>
</defs>
<g transform="matrix(1 0 0 1 540 540)" id="c580c0f3-283d-40c0-b3cf-61a77d95ce92"  >
<rect style="stroke: none; stroke-width: 1; stroke-dasharray: none; stroke-linecap: butt; stroke-dashoffset: 0; stroke-linejoin: miter; stroke-miterlimit: 4; fill: rgb(255,255,255); fill-rule: nonzero; opacity: 1; visibility: hidden;" vector-effect="non-scaling-stroke"  x="-540" y="-540" rx="0" ry="0" width="1080" height="1080" />
</g>
<g transform="matrix(1 0 0 1 540 540)" id="7cd9e9b4-bf78-42e5-a73f-af55c6ea53cd"  >
</g>
<g transform="matrix(8.31 0 0 8.31 540 540)"  >
<g style=""   >
		<g transform="matrix(1 0 0 1 -0.5 0)"  >
<rect style="stroke: none; stroke-width: 1; stroke-dasharray: none; stroke-linecap: butt; stroke-dashoffset: 0; stroke-linejoin: miter; stroke-miterlimit: 4; fill: rgb(104,0,185); fill-rule: nonzero; opacity: 1;" vector-effect="non-scaling-stroke"  x="-27.5" y="-20" rx="8" ry="8" width="55" height="40" />
</g>
		<g transform="matrix(1 0 0 1 -12 -31)"  >
<rect style="stroke: none; stroke-width: 1; stroke-dasharray: none; stroke-linecap: butt; stroke-dashoffset: 0; stroke-linejoin: miter; stroke-miterlimit: 4; fill: rgb(104,0,185); fill-rule: nonzero; opacity: 1;" vector-effect="non-scaling-stroke"  x="-7" y="-7" rx="3" ry="3" width="14" height="14" />
</g>
		<g transform="matrix(1 0 0 1 -16 -39)"  >
<rect style="stroke: none; stroke-width: 1; stroke-dasharray: none; stroke-linecap: butt; stroke-dashoffset: 0; stroke-linejoin: miter; stroke-miterlimit: 4; fill: rgb(104,0,185); fill-rule: nonzero; opacity: 1;" vector-effect="non-scaling-stroke"  x="-1" y="-2" rx="0" ry="0" width="2" height="4" />
</g>
		<g transform="matrix(1 0 0 1 -8 -39)"  >
<rect style="stroke: none; stroke-width: 1; stroke-dasharray: none; stroke-linecap: butt; stroke-dashoffset: 0; stroke-linejoin: miter; stroke-miterlimit: 4; fill: rgb(104,0,185); fill-rule: nonzero; opacity: 1;" vector-effect="non-scaling-stroke"  x="-1" y="-2" rx="0" ry="0" width="2" height="4" />
</g>
		<g transform="matrix(1 0 0 1 -12 -42)"  >
<rect style="stroke: none; stroke-width: 1; stroke-dasharray: none; stroke-linecap: butt; stroke-dashoffset: 0; stroke-linejoin: miter; stroke-miterlimit: 4; fill: rgb(104,0,185); fill-rule: nonzero; opacity: 1;" vector-effect="non-scaling-stroke"  x="-7" y="-1" rx="1" ry="1" width="14" height="2" />
</g>
		<g transform="matrix(1 0 0 1 12 -31)"  >
<rect style="stroke: none; stroke-width: 1; stroke-dasharray: none; stroke-linecap: butt; stroke-dashoffset: 0; stroke-linejoin: miter; stroke-miterlimit: 4; fill: rgb(104,0,185); fill-rule: nonzero; opacity: 1;" vector-effect="non-scaling-stroke"  x="-7" y="-7" rx="3" ry="3" width="14" height="14" />
</g>
		<g transform="matrix(1 0 0 1 8 -39)"  >
<rect style="stroke: none; stroke-width: 1; stroke-dasharray: none; stroke-linecap: butt; stroke-dashoffset: 0; stroke-linejoin: miter; stroke-miterlimit: 4; fill: rgb(104,0,185); fill-rule: nonzero; opacity: 1;" vector-effect="non-scaling-stroke"  x="-1" y="-2" rx="0" ry="0" width="2" height="4" />
</g>
		<g transform="matrix(1 0 0 1 16 -39)"  >
<rect style="stroke: none; stroke-width: 1; stroke-dasharray: none; stroke-linecap: butt; stroke-dashoffset: 0; stroke-linejoin: miter; stroke-miterlimit: 4; fill: rgb(104,0,185); fill-rule: nonzero; opacity: 1;" vector-effect="non-scaling-stroke"  x="-1" y="-2" rx="0" ry="0" width="2" height="4" />
</g>
		<g transform="matrix(1 0 0 1 12 -42)"  >
<rect style="stroke: none; stroke-width: 1; stroke-dasharray: none; stroke-linecap: butt; stroke-dashoffset: 0; stroke-linejoin: miter; stroke-miterlimit: 4; fill: rgb(104,0,185); fill-rule: nonzero; opacity: 1;" vector-effect="non-scaling-stroke"  x="-7" y="-1" rx="1" ry="1" width="14" height="2" />
</g>
		<g transform="matrix(-1 0 0 -1 12 31)"  >
<rect style="stroke: none; stroke-width: 1; stroke-dasharray: none; stroke-linecap: butt; stroke-dashoffset: 0; stroke-linejoin: miter; stroke-miterlimit: 4; fill: rgb(104,0,185); fill-rule: nonzero; opacity: 1;" vector-effect="non-scaling-stroke"  x="-7" y="-7" rx="3" ry="3" width="14" height="14" />
</g>
		<g transform="matrix(-1 0 0 -1 16 39)"  >
<rect style="stroke: none; stroke-width: 1; stroke-dasharray: none; stroke-linecap: butt; stroke-dashoffset: 0; stroke-linejoin: miter; stroke-miterlimit: 4; fill: rgb(104,0,185); fill-rule: nonzero; opacity: 1;" vector-effect="non-scaling-stroke"  x="-1" y="-2" rx="0" ry="0" width="2" height="4" />
</g>
		<g transform="matrix(-1 0 0 -1 8 39)"  >
<rect style="stroke: none; stroke-width: 1; stroke-dasharray: none; stroke-linecap: butt; stroke-dashoffset: 0; stroke-linejoin: miter; stroke-miterlimit: 4; fill: rgb(104,0,185); fill-rule: nonzero; opacity: 1;" vector-effect="non-scaling-stroke"  x="-1" y="-2" rx="0" ry="0" width="2" height="4" />
</g>
		<g transform="matrix(-1 0 0 -1 12 42)"  >
<rect style="stroke: none; stroke-width: 1; stroke-dasharray: none; stroke-linecap: butt; stroke-dashoffset: 0; stroke-linejoin: miter; stroke-miterlimit: 4; fill: rgb(104,0,185); fill-rule: nonzero; opacity: 1;" vector-effect="non-scaling-stroke"  x="-7" y="-1" rx="1" ry="1" width="14" height="2" />
</g>
		<g transform="matrix(-1 0 0 -1 -12 31)"  >
<rect style="stroke: none; stroke-width: 1; stroke-dasharray: none; stroke-linecap: butt; stroke-dashoffset: 0; stroke-linejoin: miter; stroke-miterlimit: 4; fill: rgb(104,0,185); fill-rule: nonzero; opacity: 1;" vector-effect="non-scaling-stroke"  x="-7" y="-7" rx="3" ry="3" width="14" height="14" />
</g>
		<g transform="matrix(-1 0 0 -1 -8 39)"  >
<rect style="stroke: none; stroke-width: 1; stroke-dasharray: none; stroke-linecap: butt; stroke-dashoffset: 0; stroke-linejoin: miter; stroke-miterlimit: 4; fill: rgb(104,0,185); fill-rule: nonzero; opacity: 1;" vector-effect="non-scaling-stroke"  x="-1" y="-2" rx="0" ry="0" width="2" height="4" />
</g>
		<g transform="matrix(-1 0 0 -1 -16 39)"  >
<rect style="stroke: none; stroke-width: 1; stroke-dasharray: none; stroke-linecap: butt; stroke-dashoffset: 0; stroke-linejoin: miter; stroke-miterlimit: 4; fill: rgb(104,0,185); fill-rule: nonzero; opacity: 1;" vector-effect="non-scaling-stroke"  x="-1" y="-2" rx="0" ry="0" width="2" height="4" />
</g>
		<g transform="matrix(-1 0 0 -1 -12 42)"  >
<rect style="stroke: none; stroke-width: 1; stroke-dasharray: none; stroke-linecap: butt; stroke-dashoffset: 0; stroke-linejoin: miter; stroke-miterlimit: 4; fill: rgb(104,0,185); fill-rule: nonzero; opacity: 1;" vector-effect="non-scaling-stroke"  x="-7" y="-1" rx="1" ry="1" width="14" height="2" />
</g>
</g>
</g>
</svg>